<svg width="168" height="167" viewBox="0 0 168 167" fill="none" xmlns="http://www.w3.org/2000/svg">
<path d="M53.0846 38.3802C58.3823 22.1295 61.0312 14.0042 66.2278 8.82487C70.7989 4.269 76.6997 1.27236 83.0845 0.264455C90.3431 -0.88138 98.4955 1.7587 114.8 7.03886L128.993 11.635C145.298 16.9152 153.45 19.5552 158.647 24.7346C163.218 29.2905 166.224 35.1717 167.235 41.5353C168.385 48.7699 165.736 56.8952 160.438 73.1459L152.871 96.3589C147.573 112.61 144.924 120.735 139.728 125.914C135.157 130.47 129.256 133.467 122.871 134.475C115.612 135.62 107.46 132.98 91.1554 127.7L76.9628 123.104C60.658 117.824 52.5057 115.184 47.3091 110.005C42.738 105.449 39.7314 99.5674 38.7202 93.2038C37.5705 85.9693 40.2194 77.8439 45.5171 61.5933L53.0846 38.3802Z" fill="#BFD9C7"/>
<g filter="url(#filter0_b_602_91394)">
<rect x="0.5" y="37.9548" width="117.659" height="129.045" rx="30.3636" fill="#BFD9C7" fill-opacity="0.32"/>
</g>
<g filter="url(#filter1_bdii_602_91394)">
<path fill-rule="evenodd" clip-rule="evenodd" d="M30.8638 64.5229C28.7676 64.5229 27.0684 66.2222 27.0684 68.3184C27.0684 70.4146 28.7676 72.1139 30.8638 72.1139H87.7956C89.8918 72.1139 91.5911 70.4146 91.5911 68.3184C91.5911 66.2222 89.8918 64.5229 87.7956 64.5229H30.8638ZM27.0684 87.2957C27.0684 85.1995 28.7676 83.5002 30.8638 83.5002H87.7956C89.8918 83.5002 91.5911 85.1995 91.5911 87.2957C91.5911 89.3918 89.8918 91.0911 87.7956 91.0911H30.8638C28.7676 91.0911 27.0684 89.3918 27.0684 87.2957ZM27.0684 106.273C27.0684 104.177 28.7676 102.477 30.8638 102.477H49.8411C51.9373 102.477 53.6365 104.177 53.6365 106.273C53.6365 108.369 51.9373 110.068 49.8411 110.068H30.8638C28.7676 110.068 27.0684 108.369 27.0684 106.273Z" fill="url(#paint0_linear_602_91394)"/>
</g>
<defs>
<filter id="filter0_b_602_91394" x="-45.0455" y="-7.59062" width="208.749" height="220.136" filterUnits="userSpaceOnUse" color-interpolation-filters="sRGB">
<feFlood flood-opacity="0" result="BackgroundImageFix"/>
<feGaussianBlur in="BackgroundImageFix" stdDeviation="22.7727"/>
<feComposite in2="SourceAlpha" operator="in" result="effect1_backgroundBlur_602_91394"/>
<feBlend mode="normal" in="SourceGraphic" in2="effect1_backgroundBlur_602_91394" result="shape"/>
</filter>
<filter id="filter1_bdii_602_91394" x="0.500177" y="37.9548" width="119.558" height="100.58" filterUnits="userSpaceOnUse" color-interpolation-filters="sRGB">
<feFlood flood-opacity="0" result="BackgroundImageFix"/>
<feGaussianBlur in="BackgroundImageFix" stdDeviation="13.2841"/>
<feComposite in2="SourceAlpha" operator="in" result="effect1_backgroundBlur_602_91394"/>
<feColorMatrix in="SourceAlpha" type="matrix" values="0 0 0 0 0 0 0 0 0 0 0 0 0 0 0 0 0 0 127 0" result="hardAlpha"/>
<feOffset dx="9.48864" dy="9.48864"/>
<feGaussianBlur stdDeviation="9.48864"/>
<feColorMatrix type="matrix" values="0 0 0 0 0.164706 0 0 0 0 0.580392 0 0 0 0 0.756863 0 0 0 0.32 0"/>
<feBlend mode="normal" in2="effect1_backgroundBlur_602_91394" result="effect2_dropShadow_602_91394"/>
<feBlend mode="normal" in="SourceGraphic" in2="effect2_dropShadow_602_91394" result="shape"/>
<feColorMatrix in="SourceAlpha" type="matrix" values="0 0 0 0 0 0 0 0 0 0 0 0 0 0 0 0 0 0 127 0" result="hardAlpha"/>
<feOffset dy="0.379545"/>
<feComposite in2="hardAlpha" operator="arithmetic" k2="-1" k3="1"/>
<feColorMatrix type="matrix" values="0 0 0 0 1 0 0 0 0 1 0 0 0 0 1 0 0 0 0.25 0"/>
<feBlend mode="normal" in2="shape" result="effect3_innerShadow_602_91394"/>
<feColorMatrix in="SourceAlpha" type="matrix" values="0 0 0 0 0 0 0 0 0 0 0 0 0 0 0 0 0 0 127 0" result="hardAlpha"/>
<feOffset dy="-0.379545"/>
<feComposite in2="hardAlpha" operator="arithmetic" k2="-1" k3="1"/>
<feColorMatrix type="matrix" values="0 0 0 0 0.270588 0 0 0 0 0.705882 0 0 0 0 0.984314 0 0 0 0.43 0"/>
<feBlend mode="normal" in2="effect3_innerShadow_602_91394" result="effect4_innerShadow_602_91394"/>
</filter>
<linearGradient id="paint0_linear_602_91394" x1="69.0081" y1="37.9548" x2="45.104" y2="194.353" gradientUnits="userSpaceOnUse">
<stop stop-color="white" stop-opacity="0.88"/>
<stop offset="1" stop-color="white" stop-opacity="0"/>
</linearGradient>
</defs>
</svg>
