<svg width="224" height="63" viewBox="0 0 224 63" fill="none" xmlns="http://www.w3.org/2000/svg">
<path d="M23.4934 14.9591H26.6272V30.9304C27.1307 30.8045 27.5712 30.7416 27.9487 30.7416C28.5528 30.7416 29.1318 30.8549 29.6856 31.0814C30.2393 31.308 30.7176 31.6226 31.1203 32.0254C31.5231 32.4281 31.8377 32.9064 32.0643 33.4601C32.316 33.9887 32.4418 34.5677 32.4418 35.197V46.4486H42.3719V49.5824H29.308V39.4635C28.8046 39.5894 28.3515 39.6523 27.9487 39.6523C27.3446 39.6523 26.7657 39.539 26.2119 39.3125C25.6833 39.0608 25.2176 38.7335 24.8149 38.3308C24.4121 37.9281 24.0849 37.4624 23.8332 36.9338C23.6067 36.38 23.4934 35.8011 23.4934 35.197V14.9591ZM23.4934 41.3514H26.6272V50.8662H42.3719V54H23.4934V41.3514ZM26.6272 35.197C26.6272 35.5745 26.7531 35.9018 27.0048 36.1786C27.2817 36.4304 27.5963 36.5562 27.9487 36.5562C28.3263 36.5562 28.6409 36.4178 28.8927 36.1409C29.1695 35.864 29.308 35.5494 29.308 35.197C29.308 34.9956 29.2576 34.7816 29.157 34.5551C28.9052 34.0768 28.5025 33.8377 27.9487 33.8377C27.5963 33.8377 27.2817 33.9761 27.0048 34.253C26.7531 34.5047 26.6272 34.8194 26.6272 35.197ZM53.0103 14.9591V54H49.9142V16.5827H47.1957V54H44.3262V14.9591H53.0103ZM110.216 42.3708C110.216 43.6042 110.443 44.7621 110.896 45.8445C111.374 46.9268 112.016 47.8833 112.822 48.714C113.627 49.5195 114.571 50.1614 115.654 50.6396C116.736 51.0927 117.894 51.3192 119.127 51.3192C120.361 51.3192 121.518 51.0927 122.601 50.6396C123.683 50.1614 124.627 49.5195 125.433 48.714C125.508 48.6385 125.571 48.563 125.621 48.4875C125.697 48.4119 125.772 48.3364 125.848 48.2609L107.083 26.6261C107.108 24.9648 107.435 23.4167 108.064 21.982C108.719 20.522 109.587 19.2634 110.67 18.2062C111.752 17.1239 113.011 16.268 114.445 15.6388C115.905 15.0095 117.466 14.6948 119.127 14.6948C120.788 14.6948 122.349 15.0095 123.809 15.6388C125.269 16.268 126.54 17.1365 127.623 18.244C128.705 19.3264 129.561 20.5975 130.19 22.0575C130.819 23.5174 131.134 25.078 131.134 26.7394H128.038C128.038 25.506 127.799 24.3481 127.32 23.2657C126.867 22.1833 126.238 21.2394 125.433 20.4339C124.627 19.6284 123.683 18.9866 122.601 18.5083C121.518 18.03 120.361 17.7909 119.127 17.7909C118.548 17.7909 117.932 17.8664 117.277 18.0175C116.648 18.1433 116.031 18.3447 115.427 18.6216C114.823 18.8733 114.256 19.1879 113.728 19.5655C113.224 19.9179 112.797 20.3332 112.444 20.8115L131.134 42.3708C131.134 44.0321 130.819 45.5927 130.19 47.0527C129.561 48.5126 128.705 49.7964 127.623 50.9039C126.54 51.9863 125.269 52.8421 123.809 53.4714C122.349 54.1007 120.788 54.4153 119.127 54.4153C117.466 54.4153 115.905 54.1007 114.445 53.4714C112.985 52.8421 111.702 51.9863 110.594 50.9039C109.512 49.7964 108.656 48.5126 108.027 47.0527C107.397 45.5927 107.083 44.0321 107.083 42.3708H110.216ZM110.745 23.6055C110.519 24.2096 110.368 24.8515 110.292 25.5311L127.509 45.4291C127.736 44.7998 127.887 44.1454 127.962 43.4658L110.745 23.6055ZM143.622 35.0459C143.471 34.6432 143.396 34.1901 143.396 33.6867C143.396 33.0826 143.509 32.5036 143.735 31.9498C143.987 31.3961 144.314 30.9178 144.717 30.5151C145.12 30.1123 145.585 29.7977 146.114 29.5711C146.668 29.3194 147.247 29.1936 147.851 29.1936H156.686V51.0172H158.196V14.9591H161.33V54H153.514V32.1764H152.08C152.155 32.4029 152.218 32.6421 152.268 32.8938C152.319 33.1455 152.344 33.4098 152.344 33.6867C152.344 34.2908 152.218 34.8697 151.966 35.4235C151.74 35.9521 151.425 36.4178 151.022 36.8205C150.62 37.2233 150.141 37.5505 149.588 37.8022C149.034 38.0287 148.455 38.142 147.851 38.142H142.263V54H139.167V35.0459H143.622ZM134.221 54V14.9591H142.263V28.8915H139.167V17.9797H137.354V54H134.221ZM146.945 32.705C146.668 32.9819 146.529 33.3091 146.529 33.6867C146.529 34.0391 146.655 34.3537 146.907 34.6306C147.184 34.8823 147.498 35.0082 147.851 35.0082C148.228 35.0082 148.543 34.8823 148.795 34.6306C149.072 34.3537 149.21 34.0391 149.21 33.6867C149.21 33.3091 149.072 32.9945 148.795 32.7427C148.543 32.4659 148.228 32.3274 147.851 32.3274C147.498 32.3274 147.196 32.4533 146.945 32.705ZM163.815 34.3663C163.815 31.6226 164.331 29.0551 165.363 26.6638C166.42 24.2474 167.842 22.1456 169.629 20.3584C171.417 18.5712 173.518 17.1616 175.935 16.1296C178.351 15.0724 180.931 14.5438 183.675 14.5438V17.6399C181.359 17.6399 179.182 18.0804 177.143 18.9614C175.129 19.8424 173.367 21.038 171.857 22.5483C170.347 24.0586 169.151 25.8332 168.27 27.8721C167.389 29.911 166.949 32.0757 166.949 34.3663C166.949 36.6821 167.377 38.8594 168.232 40.8983C169.113 42.9372 170.309 44.7117 171.819 46.222C173.33 47.7323 175.104 48.928 177.143 49.809C179.182 50.69 181.359 51.1305 183.675 51.1305C185.966 51.1305 188.13 50.69 190.169 49.809C192.208 48.928 193.983 47.7323 195.493 46.222C197.003 44.6866 198.199 42.912 199.08 40.8983C199.961 38.8594 200.401 36.6821 200.401 34.3663H203.498C203.498 37.11 202.969 39.6901 201.912 42.1065C200.88 44.523 199.47 46.6248 197.683 48.4119C195.896 50.1991 193.794 51.6213 191.377 52.6785C188.986 53.7105 186.419 54.2265 183.675 54.2265C180.931 54.2265 178.351 53.7105 175.935 52.6785C173.518 51.6213 171.417 50.1991 169.629 48.4119C167.842 46.6248 166.42 44.523 165.363 42.1065C164.331 39.6901 163.815 37.11 163.815 34.3663ZM169.139 34.3663C169.139 32.3778 169.516 30.5025 170.271 28.7405C171.026 26.9785 172.058 25.443 173.367 24.1341C174.701 22.8 176.249 21.7554 178.011 21.0003C179.773 20.2451 181.661 19.8676 183.675 19.8676C185.664 19.8676 187.539 20.2451 189.301 21.0003C191.063 21.7554 192.598 22.8 193.907 24.1341C195.241 25.443 196.286 26.9785 197.041 28.7405C197.796 30.5025 198.174 32.3778 198.174 34.3663L195.078 34.4041C195.053 32.8183 194.738 31.3331 194.134 29.9487C193.555 28.5643 192.749 27.3561 191.717 26.324C190.71 25.292 189.515 24.4865 188.13 23.9076C186.746 23.3035 185.261 23.0014 183.675 23.0014C182.089 23.0014 180.604 23.3035 179.22 23.9076C177.835 24.4865 176.627 25.292 175.595 26.324C174.563 27.3561 173.745 28.5643 173.141 29.9487C172.562 31.3331 172.272 32.8183 172.272 34.4041L169.139 34.3663ZM179.559 36.1031C179.308 35.5997 179.182 35.0333 179.182 34.4041C179.182 33.7999 179.295 33.221 179.522 32.6672C179.773 32.1135 180.101 31.6352 180.503 31.2325C180.906 30.8297 181.384 30.5151 181.938 30.2885C182.492 30.0368 183.071 29.911 183.675 29.911C184.279 29.911 184.845 30.0368 185.374 30.2885C185.928 30.5151 186.406 30.8297 186.809 31.2325C187.212 31.6352 187.526 32.1135 187.753 32.6672C188.005 33.221 188.13 33.7999 188.13 34.4041C188.13 35.0082 188.005 35.5871 187.753 36.1409C187.526 36.6695 187.212 37.1352 186.809 37.5379C186.406 37.9406 185.928 38.2679 185.374 38.5196C184.845 38.7461 184.279 38.8594 183.675 38.8594C182.744 38.8594 181.9 38.6077 181.145 38.1043C180.415 37.5757 179.887 36.9086 179.559 36.1031ZM182.316 34.4041C182.316 34.7565 182.442 35.0711 182.693 35.348C182.97 35.5997 183.297 35.7256 183.675 35.7256C184.027 35.7256 184.329 35.5997 184.581 35.348C184.858 35.0711 184.997 34.7565 184.997 34.4041C184.997 34.0265 184.858 33.7118 184.581 33.4601C184.329 33.1832 184.027 33.0448 183.675 33.0448C183.297 33.0448 182.97 33.1832 182.693 33.4601C182.442 33.7118 182.316 34.0265 182.316 34.4041Z" fill="white"/>
<path d="M80.5781 54.7628V17.0161H86.131V26.7224M86.131 54.7628V26.7224M86.131 26.7224L97.2368 17.0161H102.79L95.0156 24.5654L91.6839 27.8009C90.9435 28.8794 89.907 31.6834 91.6839 34.2717C93.4608 36.8601 102.049 49.0109 106.121 54.7628" stroke="white" stroke-width="3.14643"/>
<path d="M97.6063 30.767C97.6063 32.2375 96.3656 33.5077 94.7372 33.5077C93.1089 33.5077 91.8681 32.2375 91.8681 30.767C91.8681 29.2966 93.1089 28.0263 94.7372 28.0263C96.3656 28.0263 97.6063 29.2966 97.6063 30.767Z" stroke="white" stroke-width="3.14643"/>
<path d="M20.554 15.9702C-2.26757 15.9702 -5.92488 50.109 20.2614 52.5998" stroke="white" stroke-width="3.22092"/>
<path d="M75.5345 15.9702C52.7129 15.9702 49.0556 50.109 75.2419 52.5998" stroke="white" stroke-width="3.22092"/>
<path d="M14.5547 18.0215V50.8416" stroke="white" stroke-width="3.22092"/>
<path d="M69.5371 18.0215V50.8416" stroke="white" stroke-width="3.22092"/>
<path d="M210.296 53.9189V22.857M197.861 16.2637H222V21.2453H201.811" stroke="white" stroke-width="3.22092"/>
</svg>
