<svg viewBox="0 0 33 23" fill="none" xmlns="http://www.w3.org/2000/svg">
<path d="M16.5007 3.47917C22.0277 3.47917 26.9569 6.58542 29.3632 11.5C26.9569 16.4146 22.0423 19.5208 16.5007 19.5208C10.959 19.5208 6.0444 16.4146 3.63815 11.5C6.0444 6.58542 10.9736 3.47917 16.5007 3.47917ZM16.5007 0.5625C9.20899 0.5625 2.9819 5.09792 0.458984 11.5C2.9819 17.9021 9.20899 22.4375 16.5007 22.4375C23.7923 22.4375 30.0194 17.9021 32.5423 11.5C30.0194 5.09792 23.7923 0.5625 16.5007 0.5625ZM16.5007 7.85417C18.5132 7.85417 20.1465 9.4875 20.1465 11.5C20.1465 13.5125 18.5132 15.1458 16.5007 15.1458C14.4882 15.1458 12.8548 13.5125 12.8548 11.5C12.8548 9.4875 14.4882 7.85417 16.5007 7.85417ZM16.5007 4.9375C12.884 4.9375 9.93815 7.88333 9.93815 11.5C9.93815 15.1167 12.884 18.0625 16.5007 18.0625C20.1173 18.0625 23.0632 15.1167 23.0632 11.5C23.0632 7.88333 20.1173 4.9375 16.5007 4.9375Z" fill="white"/>
</svg>
