<svg viewBox="0 0 19 21" fill="none" xmlns="http://www.w3.org/2000/svg">
  <path
    d="M1.5 8.04248C1.5 5.21405 1.5 3.79984 2.37868 2.92116C3.25736 2.04248 4.67157 2.04248 7.5 2.04248H11.5C14.3284 2.04248 15.7426 2.04248 16.6213 2.92116C17.5 3.79984 17.5 5.21405 17.5 8.04248V14.8701C17.5 17.5534 17.5 18.895 16.6557 19.3054C15.8114 19.7157 14.7565 18.8868 12.6465 17.229L11.9713 16.6985C10.7849 15.7663 10.1917 15.3003 9.5 15.3003C8.80827 15.3003 8.21509 15.7663 7.02871 16.6985L6.35346 17.229C4.24355 18.8868 3.18859 19.7157 2.34429 19.3054C1.5 18.895 1.5 17.5534 1.5 14.8701V8.04248Z"
    stroke="currentColor" stroke-width="2.2341" />
</svg>