<svg viewBox="0 0 23 24" fill="none" xmlns="http://www.w3.org/2000/svg">
  <path
    d="M1.00977 12.1885C1.00977 11.8428 1.00977 11.6699 1.01402 11.5237C1.1689 6.20068 5.44775 1.92183 10.7708 1.76695C10.917 1.7627 11.0898 1.7627 11.4355 1.7627V1.7627C11.7813 1.7627 11.9541 1.7627 12.1003 1.76695C17.4233 1.92183 21.7022 6.20068 21.8571 11.5237C21.8613 11.6699 21.8613 11.8428 21.8613 12.1885V18.8231C21.8613 20.2793 21.8613 21.0074 21.5349 21.5429C21.3495 21.8471 21.0941 22.1024 20.79 22.2878C20.2544 22.6143 19.5263 22.6143 18.0701 22.6143H11.4355C11.0898 22.6143 10.917 22.6143 10.7708 22.61C5.44775 22.4551 1.1689 18.1763 1.01402 12.8532C1.00977 12.7071 1.00977 12.5342 1.00977 12.1885V12.1885Z"
    stroke="currentColor" stroke-width="1.67557" />
  <path d="M7.52637 10.8853L15.3457 10.8853" stroke="currentColor" stroke-width="1.67557" stroke-linecap="round"
    stroke-linejoin="round" />
  <path d="M11.4355 16.0981H15.3452" stroke="currentColor" stroke-width="1.67557" stroke-linecap="round"
    stroke-linejoin="round" />
</svg>