<svg viewBox="0 0 26 23" fill="none" xmlns="http://www.w3.org/2000/svg">
  <path fill-rule="evenodd" clip-rule="evenodd"
    d="M11.3449 1.40277L8.66555 6.31483L14.5301 12.1793L13.2268 15.4374L17.7881 11.5277L12.5752 6.31483L14.3361 4.11673C14.4307 4.04305 14.51 3.94305 14.563 3.81675C16.3091 -0.340518 21.8697 -1.11054 24.6798 2.41581L25.1857 3.05076C27.6043 6.08584 27.1912 10.4899 24.2504 13.0222L14.6077 21.3257C14.26 21.6251 14.0861 21.7748 13.8788 21.7748C13.6715 21.7748 13.4976 21.6251 13.1499 21.3257L3.50721 13.0222C0.566402 10.4899 0.153305 6.08584 2.57189 3.05076L3.07786 2.41581C5.20644 -0.255343 8.91325 -0.461315 11.3449 1.40277Z"
    fill="#1B1B1B" />
</svg>