<svg viewBox="0 0 26 23" fill="none" xmlns="http://www.w3.org/2000/svg">
  <path
    d="M11.7879 14.3528L13.0947 12.3926C13.7048 11.4775 14.0098 11.0199 13.9049 10.5532C13.8 10.0865 13.3284 9.80356 12.3852 9.23767L10.0553 7.83972C9.04092 7.23109 8.53373 6.92677 8.44272 6.43004C8.35171 5.93331 8.71807 5.46895 9.45078 4.54023L11.0626 2.49718C8.74255 0.490267 5.00516 0.65065 2.94098 3.31114L2.53783 3.83077C0.393712 6.59429 0.703293 10.5352 3.25263 12.9301L12.3134 21.4417C12.6255 21.7349 12.7816 21.8815 12.9656 21.9176C13.0485 21.9339 13.1337 21.9339 13.2166 21.9176C13.4006 21.8815 13.5566 21.7349 13.8687 21.4417L22.9295 12.9301C25.4789 10.5352 25.7884 6.59429 23.6443 3.83076L23.2412 3.31114C21.234 0.724076 17.6446 0.501023 15.3148 2.33597"
    stroke="currentColor" stroke-width="1.67557" />
</svg>