<svg viewBox="0 0 20 20" fill="none" xmlns="http://www.w3.org/2000/svg">
  <path
    d="M8.14337 4.62753C8.92998 2.66653 9.32328 1.68604 9.99961 1.68604C10.6759 1.68604 11.0692 2.66653 11.8558 4.62753L11.8925 4.71885C12.3369 5.82672 12.5591 6.38065 13.0119 6.71734C13.4648 7.05403 14.0592 7.10727 15.2481 7.21374L15.4631 7.23299C17.4089 7.40726 18.3818 7.49439 18.59 8.11337C18.7981 8.73235 18.0756 9.3897 16.6306 10.7044L16.1483 11.1432C15.4168 11.8087 15.051 12.1414 14.8806 12.5776C14.8488 12.6589 14.8223 12.7423 14.8014 12.8271C14.6894 13.2817 14.7965 13.7645 15.0107 14.7299L15.0774 15.0305C15.471 16.8048 15.6679 17.692 15.3242 18.0746C15.1958 18.2176 15.0289 18.3206 14.8434 18.3712C14.3472 18.5066 13.6428 17.9325 12.2338 16.7844C11.3086 16.0305 10.8461 15.6536 10.3149 15.5688C10.106 15.5354 9.89317 15.5354 9.68426 15.5688C9.15316 15.6536 8.69057 16.0305 7.7654 16.7844C6.35645 17.9325 5.65197 18.5066 5.15577 18.3712C4.97035 18.3206 4.80344 18.2176 4.67502 18.0746C4.33134 17.692 4.52818 16.8048 4.92185 15.0305L4.98853 14.7299C5.20274 13.7645 5.30984 13.2817 5.19779 12.8271C5.17688 12.7423 5.15045 12.6589 5.11865 12.5776C4.94817 12.1414 4.58242 11.8087 3.85091 11.1432L3.36863 10.7044C1.92359 9.3897 1.20107 8.73235 1.40924 8.11337C1.61742 7.49439 2.59033 7.40726 4.53614 7.23299L4.75108 7.21374C5.94 7.10727 6.53445 7.05403 6.9873 6.71734C7.44015 6.38065 7.66235 5.82672 8.10674 4.71885L8.14337 4.62753Z"
    stroke="currentColor" stroke-width="2" />
</svg>