<svg viewBox="0 0 23 22" fill="none" xmlns="http://www.w3.org/2000/svg">
  <path
    d="M2 11L1.21913 10.3753L0.719375 11L1.21913 11.6247L2 11ZM11 12C11.5523 12 12 11.5523 12 11C12 10.4477 11.5523 9.99999 11 9.99999V12ZM13.3424 2.44292L13.178 1.45652L13.178 1.45652L13.3424 2.44292ZM15.0136 2.16439L15.178 3.15078L15.178 3.15078L15.0136 2.16439ZM15.0136 19.8356L15.178 18.8492L15.178 18.8492L15.0136 19.8356ZM13.3424 19.5571L13.178 20.5434L13.178 20.5434L13.3424 19.5571ZM10.474 18.5985L11.237 17.9521L11.237 17.9521L10.474 18.5985ZM20.9391 19.7477L21.5855 20.5107L21.5855 20.5107L20.9391 19.7477ZM20.9391 2.25231L21.5855 1.48929L21.5855 1.48929L20.9391 2.25231ZM10.474 3.40149L9.71094 2.75512L9.71094 2.75512L10.474 3.40149ZM5.21913 5.37529L1.21913 10.3753L2.78087 11.6247L6.78087 6.62468L5.21913 5.37529ZM1.21913 11.6247L5.21913 16.6247L6.78087 15.3753L2.78087 10.3753L1.21913 11.6247ZM2 12H11V9.99999H2V12ZM13.5068 3.42931L15.178 3.15078L14.8492 1.17799L13.178 1.45652L13.5068 3.42931ZM21 8.08275V13.9172H23V8.08275H21ZM15.178 18.8492L13.5068 18.5707L13.178 20.5434L14.8492 20.822L15.178 18.8492ZM11 7.13192V6.38849H9V7.13192H11ZM11 15.6115V15.066H9V15.6115H11ZM13.5068 18.5707C12.6833 18.4334 12.1573 18.3439 11.7726 18.2294C11.4147 18.1228 11.301 18.0276 11.237 17.9521L9.71094 19.2449C10.1209 19.7288 10.6432 19.9799 11.202 20.1462C11.7339 20.3046 12.4052 20.4146 13.178 20.5434L13.5068 18.5707ZM9 15.6115C9 16.395 8.99818 17.0752 9.06695 17.6259C9.13917 18.2044 9.30096 18.7609 9.71094 19.2449L11.237 17.9521C11.173 17.8766 11.0978 17.7487 11.0515 17.3782C11.0018 16.9799 11 16.4463 11 15.6115H9ZM21 13.9172C21 15.5917 20.9976 16.7403 20.8773 17.5878C20.7609 18.4077 20.5567 18.7611 20.2927 18.9846L21.5855 20.5107C22.3825 19.8356 22.7086 18.9176 22.8575 17.8689C23.0024 16.8479 23 15.5306 23 13.9172H21ZM14.8492 20.822C16.4406 21.0872 17.7396 21.3061 18.7705 21.331C19.8294 21.3566 20.7885 21.1858 21.5855 20.5107L20.2928 18.9846C20.0288 19.2082 19.6467 19.3516 18.8189 19.3316C17.963 19.3109 16.8297 19.1245 15.178 18.8492L14.8492 20.822ZM15.178 3.15078C16.8297 2.8755 17.963 2.68903 18.8189 2.66835C19.6467 2.64835 20.0288 2.79175 20.2928 3.01533L21.5855 1.48929C20.7885 0.814164 19.8294 0.643351 18.7705 0.668934C17.7396 0.693841 16.4406 0.912757 14.8492 1.17799L15.178 3.15078ZM23 8.08275C23 6.46939 23.0024 5.1521 22.8575 4.13108C22.7086 3.08238 22.3825 2.16441 21.5855 1.48929L20.2928 3.01533C20.5567 3.2389 20.7609 3.59224 20.8773 4.41213C20.9976 5.2597 21 6.40828 21 8.08275H23ZM13.178 1.45652C12.4052 1.58533 11.7339 1.69536 11.202 1.85374C10.6432 2.02009 10.1209 2.27115 9.71094 2.75512L11.237 4.04787C11.301 3.97234 11.4147 3.87715 11.7726 3.77059C12.1573 3.65607 12.6833 3.56656 13.5068 3.42931L13.178 1.45652ZM11 6.38849C11 5.55364 11.0018 5.02007 11.0515 4.62181C11.0978 4.25126 11.173 4.12339 11.237 4.04787L9.71094 2.75512C9.30096 3.23908 9.13917 3.79554 9.06695 4.37403C8.99818 4.92482 9 5.605 9 6.38849H11Z"
    fill="currentColor" />
</svg>