<svg viewBox="0 0 21 20" fill="none" xmlns="http://www.w3.org/2000/svg">
  <path
    d="M10.6025 16.4618L10.5001 16.5642L10.3875 16.4618C5.52377 12.0486 2.30861 9.13038 2.30861 6.1712C2.30861 4.12333 3.84452 2.58742 5.89239 2.58742C7.46925 2.58742 9.00516 3.61136 9.54784 5.00391H11.4524C11.9951 3.61136 13.531 2.58742 15.1078 2.58742C17.1557 2.58742 18.6916 4.12333 18.6916 6.1712C18.6916 9.13038 15.4764 12.0486 10.6025 16.4618ZM15.1078 0.539551C13.3262 0.539551 11.6162 1.36894 10.5001 2.66934C9.38401 1.36894 7.67404 0.539551 5.89239 0.539551C2.73867 0.539551 0.260742 3.00724 0.260742 6.1712C0.260742 10.0314 3.74213 13.1954 9.0154 17.9772L10.5001 19.3288L11.9848 17.9772C17.2581 13.1954 20.7395 10.0314 20.7395 6.1712C20.7395 3.00724 18.2615 0.539551 15.1078 0.539551Z"
    fill="currentColor" />
</svg>