<svg viewBox="0 0 24 26" fill="none" xmlns="http://www.w3.org/2000/svg">
  <path
    d="M1.6709 9.43897C1.6709 5.75289 1.6709 3.90986 2.81601 2.76474C3.96113 1.61963 5.80416 1.61963 9.49024 1.61963H14.7031C18.3892 1.61963 20.2322 1.61963 21.3773 2.76474C22.5225 3.90986 22.5225 5.75289 22.5225 9.43897V18.3369C22.5225 21.8338 22.5225 23.5822 21.4222 24.117C20.3219 24.6518 18.947 23.5716 16.1973 21.4111L15.3173 20.7197C13.7712 19.5049 12.9982 18.8975 12.0967 18.8975C11.1952 18.8975 10.4222 19.5049 8.87604 20.7197L7.99604 21.4111C5.24635 23.5716 3.8715 24.6518 2.7712 24.117C1.6709 23.5822 1.6709 21.8338 1.6709 18.3369V9.43897Z"
    stroke="currentColor" stroke-width="1.67557" />
</svg>