<svg viewBox="0 0 22 23" fill="none" xmlns="http://www.w3.org/2000/svg">
  <path
    d="M1.6665 8.5C1.6665 5.20017 1.6665 3.55025 2.69163 2.52513C3.71676 1.5 5.36667 1.5 8.6665 1.5H13.3332C16.633 1.5 18.2829 1.5 19.308 2.52513C20.3332 3.55025 20.3332 5.20017 20.3332 8.5V16.4655C20.3332 19.596 20.3332 21.1613 19.3482 21.64C18.3632 22.1188 17.1324 21.1517 14.6708 19.2177L13.883 18.5987C12.4989 17.5112 11.8069 16.9674 10.9998 16.9674C10.1928 16.9674 9.50077 17.5112 8.11667 18.5987L7.32888 19.2177C4.86731 21.1517 3.63652 22.1188 2.65151 21.64C1.6665 21.1613 1.6665 19.596 1.6665 16.4655V8.5Z"
    fill="currentColor" stroke="currentColor" stroke-width="1.5" />
</svg>