<svg viewBox="0 0 20 20" fill="none" xmlns="http://www.w3.org/2000/svg">
  <path
    d="M14.4932 13.0581H13.5918L13.2723 12.75C14.6415 11.1527 15.3489 8.97345 14.9609 6.65731C14.4247 3.48545 11.7777 0.952523 8.58299 0.564598C3.75674 -0.0287003 -0.305067 4.03311 0.28823 8.85936C0.676156 12.054 3.20908 14.7011 6.38094 15.2373C8.69709 15.6252 10.8763 14.9178 12.4737 13.5487L12.7817 13.8682V14.7695L17.6308 19.6186C18.0986 20.0864 18.863 20.0864 19.3308 19.6186C19.7986 19.1508 19.7986 18.3864 19.3308 17.9186L14.4932 13.0581ZM7.64741 13.0581C4.80642 13.0581 2.5131 10.7648 2.5131 7.92377C2.5131 5.08279 4.80642 2.78946 7.64741 2.78946C10.4884 2.78946 12.7817 5.08279 12.7817 7.92377C12.7817 10.7648 10.4884 13.0581 7.64741 13.0581Z"
    fill="currentColor" />
</svg>