<svg viewBox="0 0 24 20" fill="none" xmlns="http://www.w3.org/2000/svg">
  <path
    d="M22.5547 7.74219L23.1471 8.33459L23.7395 7.74219L23.1471 7.14978L22.5547 7.74219ZM0.865337 18.168C0.865337 18.6307 1.24043 19.0058 1.70312 19.0058C2.16582 19.0058 2.54091 18.6307 2.54091 18.168L0.865337 18.168ZM16.631 14.8507L23.1471 8.33459L21.9623 7.14978L15.4462 13.6659L16.631 14.8507ZM23.1471 7.14978L16.631 0.633668L15.4462 1.81848L21.9623 8.33459L23.1471 7.14978ZM22.5547 6.9044L8.40541 6.9044L8.40541 8.57997L22.5547 8.57997L22.5547 6.9044ZM0.865337 14.4445L0.865337 18.168L2.54091 18.168L2.54091 14.4445L0.865337 14.4445ZM8.40541 6.9044C4.24114 6.9044 0.865338 10.2802 0.865337 14.4445L2.54091 14.4445C2.54091 11.2056 5.16654 8.57997 8.40541 8.57997L8.40541 6.9044Z"
    fill="currentColor" />
</svg>