<svg viewBox="0 0 20 20" fill="none" xmlns="http://www.w3.org/2000/svg">
  <circle cx="14.5" cy="5.5" r="1.5" fill="currentColor" />
  <path fill-rule="evenodd" clip-rule="evenodd"
    d="M16.9997 11.5854L16.9794 11.5651C16.5898 11.1754 16.2537 10.8393 15.9536 10.5864C15.6367 10.3193 15.2917 10.0845 14.8665 9.95617C14.3014 9.78568 13.6986 9.78568 13.1335 9.95617C12.7083 10.0845 12.3633 10.3193 12.0464 10.5864C11.7463 10.8393 11.4102 11.1754 11.0206 11.5651L10.9921 11.5936C10.6852 11.9004 10.5046 12.0795 10.3645 12.1954L10.3443 12.2118L10.3317 12.1891C10.2447 12.0295 10.1435 11.7961 9.97255 11.3972L9.05341 11.7912L9.97255 11.3972L9.91914 11.2726L9.89706 11.2211C9.54111 10.3905 9.24222 9.693 8.9464 9.16734C8.64162 8.62574 8.26182 8.11783 7.66982 7.82106C7.17604 7.57352 6.6235 7.46711 6.07311 7.51356C5.41323 7.56924 4.87197 7.89977 4.38783 8.28944C3.98249 8.61569 3.52754 9.05981 3 9.58588V10.9999C3 11.5166 3.0003 11.9848 3.00308 12.411L4.117 11.2971C4.80615 10.6079 5.26639 10.1497 5.64186 9.84746C6.01276 9.54893 6.17233 9.51229 6.24128 9.50647C6.42475 9.49099 6.60893 9.52646 6.77352 9.60897C6.83539 9.63999 6.96994 9.73326 7.20344 10.1482C7.43981 10.5682 7.69693 11.1646 8.08085 12.0605L9 11.6665L8.08086 12.0605L8.13426 12.1851L8.1506 12.2232L8.15061 12.2232C8.29951 12.5708 8.43784 12.8936 8.57591 13.1468C8.72061 13.412 8.93076 13.7299 9.2847 13.9489C9.70199 14.2072 10.1997 14.3031 10.6831 14.2182C11.093 14.1463 11.4062 13.9292 11.6391 13.7367C11.8613 13.5529 12.1096 13.3045 12.377 13.0371L12.377 13.0371L12.4063 13.0078C12.8325 12.5816 13.1083 12.307 13.3353 12.1157C13.5526 11.9325 13.6552 11.8878 13.7112 11.8709C13.8995 11.8141 14.1005 11.8141 14.2888 11.8709C14.3448 11.8878 14.4474 11.9325 14.6647 12.1157C14.8917 12.307 15.1675 12.5816 15.5937 13.0078L16.9441 14.3582C16.9902 13.6404 16.9983 12.7479 16.9997 11.5854Z"
    fill="currentColor" />
  <path
    d="M1 9C1 5.22876 1 3.34315 2.17157 2.17157C3.34315 1 5.22876 1 9 1H11C14.7712 1 16.6569 1 17.8284 2.17157C19 3.34315 19 5.22876 19 9V11C19 14.7712 19 16.6569 17.8284 17.8284C16.6569 19 14.7712 19 11 19H9C5.22876 19 3.34315 19 2.17157 17.8284C1 16.6569 1 14.7712 1 11V9Z"
    stroke="currentColor" stroke-width="2" />
</svg>